<svg xmlns="http://www.w3.org/2000/svg" width="192" height="256" viewBox="0 0 192 256">
  <defs>
    <style>
      .cls-1 {
        fill: #799bc1;
      }
    </style>
  </defs>
  <path id="Icon_awesome-code-branch" data-name="Icon awesome-code-branch" class="cls-1" d="M192,72a40,40,0,1,0-51.25,38.4c-.3,8.05-2.1,14.25-5.5,18.45-7.7,9.6-24.65,11.2-42.6,12.85-14.1,1.3-28.7,2.7-40.65,8.45v-72a40,40,0,1,0-24,0V177.8a40.09,40.09,0,1,0,26.4.9,17.6,17.6,0,0,1,7.45-6.7c8.1-4.1,20.2-5.2,33.05-6.4,21.1-1.95,45-4.2,59.1-21.7,7-8.7,10.55-19.9,10.8-33.95A40.163,40.163,0,0,0,192,72ZM40,32a8,8,0,1,1-8,8A8.024,8.024,0,0,1,40,32Zm0,192a8,8,0,1,1,8-8A8.024,8.024,0,0,1,40,224ZM152,64a8,8,0,1,1-8,8A8.024,8.024,0,0,1,152,64Z"/>
</svg>
