<svg xmlns="http://www.w3.org/2000/svg" width="80" height="70" viewBox="0 0 80 70">
  <defs>
    <style>
      .cls-1 {
        fill: #fc5c9c;
      }
    </style>
  </defs>
  <path id="Icon_awesome-briefcase" data-name="Icon awesome-briefcase" class="cls-1" d="M50,49.75a2.5,2.5,0,0,1-2.5,2.5h-15a2.5,2.5,0,0,1-2.5-2.5v-7.5H0v22.5a7.69,7.69,0,0,0,7.5,7.5h65a7.69,7.69,0,0,0,7.5-7.5V42.25H50Zm22.5-32.5H60V9.75a7.69,7.69,0,0,0-7.5-7.5h-25A7.69,7.69,0,0,0,20,9.75v7.5H7.5A7.69,7.69,0,0,0,0,24.75v12.5H80V24.75A7.69,7.69,0,0,0,72.5,17.25Zm-22.5,0H30v-5H50Z" transform="translate(0 -2.25)"/>
</svg>
