<svg xmlns="http://www.w3.org/2000/svg" width="80" height="64" viewBox="0 0 80 64">
  <defs>
    <style>
      .cls-1 {
        fill: #fc5c9c;
      }
    </style>
  </defs>
  <path id="Icon_awesome-laptop-code" data-name="Icon awesome-laptop-code" class="cls-1" d="M31.879,32.706a2,2,0,0,0,2.829,0l1.414-1.414a2,2,0,0,0,0-2.829L31.656,24l4.464-4.465a2,2,0,0,0,0-2.829l-1.414-1.414a2,2,0,0,0-2.829,0l-7.293,7.292a2,2,0,0,0,0,2.829l7.294,7.292Zm12-1.413,1.414,1.414a2,2,0,0,0,2.829,0l7.292-7.293a2,2,0,0,0,0-2.829l-7.292-7.293a2,2,0,0,0-2.829,0L43.88,16.708a2,2,0,0,0,0,2.829L48.344,24,43.88,28.465a2,2,0,0,0,0,2.829ZM78,52H47.693A3.94,3.94,0,0,1,43.6,56H36a4.245,4.245,0,0,1-4.1-4H2a2.006,2.006,0,0,0-2,2v2a8.024,8.024,0,0,0,8,8H72a8.024,8.024,0,0,0,8-8V54A2.006,2.006,0,0,0,78,52ZM72,6a6.018,6.018,0,0,0-6-6H14A6.018,6.018,0,0,0,8,6V48H72ZM64,40H16V8H64Z"/>
</svg>
