<svg xmlns="http://www.w3.org/2000/svg" width="54.999" height="80" viewBox="0 0 54.999 80">
  <defs>
    <style>
      .cls-1 {
        fill: #fc5c9c;
      }
    </style>
  </defs>
  <path id="Icon_awesome-lightbulb" data-name="Icon awesome-lightbulb" class="cls-1" d="M15.009,70.991a5,5,0,0,0,.837,2.764l2.67,4.014A5,5,0,0,0,22.679,80h9.642a5,5,0,0,0,4.162-2.231l2.67-4.014a5,5,0,0,0,.837-2.764L40,65H15l.008,5.992ZM0,27.5A27.346,27.346,0,0,0,6.806,45.59c2.581,2.945,6.619,9.1,8.158,14.289.006.041.011.081.017.122H40.018c.006-.041.011-.08.017-.122,1.539-5.191,5.576-11.344,8.158-14.289A27.494,27.494,0,1,0,0,27.5ZM27.5,15A12.514,12.514,0,0,0,15,27.5a2.5,2.5,0,1,1-5,0A17.519,17.519,0,0,1,27.5,10a2.5,2.5,0,0,1,0,5Z" transform="translate(0 0)"/>
</svg>
