<svg id="Research_Icon" data-name="Research Icon" xmlns="http://www.w3.org/2000/svg" width="92.909" height="67.913" viewBox="0 0 92.909 67.913">
  <defs>
    <style>
      .cls-1 {
        fill: #fc5c9c;
      }

      .cls-2 {
        fill: #799bc1;
      }
    </style>
  </defs>
  <path id="Icon_awesome-book-open" data-name="Icon awesome-book-open" class="cls-1" d="M75.31,2.257c-7.611.432-22.739,2-32.078,7.721a2.135,2.135,0,0,0-1.01,1.829V62.346a2.2,2.2,0,0,0,3.233,1.874c9.608-4.836,23.5-6.156,30.376-6.517A4.332,4.332,0,0,0,80,53.444V6.521a4.354,4.354,0,0,0-4.69-4.264ZM36.769,9.978C27.431,4.261,12.3,2.691,4.692,2.257A4.356,4.356,0,0,0,0,6.521V53.446A4.33,4.33,0,0,0,4.17,57.7c6.874.361,20.777,1.682,30.385,6.521a2.191,2.191,0,0,0,3.224-1.869V11.782A2.091,2.091,0,0,0,36.769,9.978Z" transform="translate(0 -2.25)"/>
  <path id="Icon_open-magnifying-glass" data-name="Icon open-magnifying-glass" class="cls-2" d="M15.75,0a15.75,15.75,0,0,0,0,31.5,15.567,15.567,0,0,0,7.47-1.845,4.5,4.5,0,0,0,.585.585l4.5,4.5a4.59,4.59,0,1,0,6.48-6.48l-4.5-4.5a4.5,4.5,0,0,0-.72-.585,15.538,15.538,0,0,0,1.98-7.47A15.767,15.767,0,0,0,15.8-.045Zm0,4.5A11.2,11.2,0,0,1,27,15.75a11.284,11.284,0,0,1-2.97,7.74l-.135.135a4.5,4.5,0,0,0-.585.585,11.26,11.26,0,0,1-7.6,2.835,11.25,11.25,0,0,1,0-22.5Z" transform="translate(56.583 31.632)"/>
</svg>
